{
	"asset":{
		"generator":"Khronos glTF Blender I/O v4.2.83",
		"version":"2.0"
	},
	"scene":0,
	"scenes":[
		{
			"name":"Scene",
			"nodes":[
				3
			]
		}
	],
	"nodes":[
		{
			"extras":{
				"currentUVSet":"map1"
			},
			"mesh":0,
			"name":"fan"
		},
		{
			"extras":{
				"currentUVSet":"map1"
			},
			"mesh":1,
			"name":"fan2"
		},
		{
			"extras":{
				"currentUVSet":"map1"
			},
			"mesh":2,
			"name":"heli"
		},
		{
			"children":[
				0,
				1,
				2
			],
			"name":"HELICOPTER",
			"rotation":[
				0.70710688829422,
				0,
				0,
				0.7071066498756409
			],
			"scale":[
				0.009999999776482582,
				0.009999999776482582,
				0.009999999776482582
			]
		}
	],
	"materials":[
		{
			"doubleSided":true,
			"name":"heli_2mt",
			"pbrMetallicRoughness":{
				"baseColorTexture":{
					"index":0
				},
				"metallicRoughnessTexture":{
					"index":1
				},
				"roughnessFactor":0.5527864098548889
			}
		},
		{
			"doubleSided":true,
			"name":"Heli_mt",
			"pbrMetallicRoughness":{
				"baseColorTexture":{
					"index":2
				},
				"metallicFactor":0,
				"roughnessFactor":0.5527864098548889
			}
		}
	],
	"meshes":[
		{
			"name":"Mesh.001",
			"primitives":[
				{
					"attributes":{
						"POSITION":0,
						"NORMAL":1,
						"TEXCOORD_0":2
					},
					"indices":3,
					"material":0
				}
			]
		},
		{
			"name":"Mesh",
			"primitives":[
				{
					"attributes":{
						"POSITION":4,
						"NORMAL":5,
						"TEXCOORD_0":6
					},
					"indices":7,
					"material":0
				}
			]
		},
		{
			"name":"Mesh.002",
			"primitives":[
				{
					"attributes":{
						"POSITION":8,
						"NORMAL":9,
						"TEXCOORD_0":10,
						"TEXCOORD_1":11
					},
					"indices":12,
					"material":0
				},
				{
					"attributes":{
						"POSITION":13,
						"NORMAL":14,
						"TEXCOORD_0":15,
						"TEXCOORD_1":16
					},
					"indices":17,
					"material":1
				}
			]
		}
	],
	"textures":[
		{
			"sampler":0,
			"source":0
		},
		{
			"sampler":0,
			"source":1
		},
		{
			"sampler":0,
			"source":2
		}
	],
	"images":[
		{
			"mimeType":"image/png",
			"name":"helicopter low_heli_2mt_AlbedoTransparency",
			"uri":"textures/helicopter%20low_heli_2mt_AlbedoTransparency.png"
		},
		{
			"mimeType":"image/png",
			"name":"helicopter low_heli_2mt_MetallicSmoothness",
			"uri":"textures/helicopter%20low_heli_2mt_MetallicSmoothness.png"
		},
		{
			"mimeType":"image/png",
			"name":"helicopter low_Heli_mt_AlbedoTransparency",
			"uri":"textures/helicopter%20low_Heli_mt_AlbedoTransparency.png"
		}
	],
	"accessors":[
		{
			"bufferView":0,
			"componentType":5126,
			"count":384,
			"max":[
				391.2568359375,
				581.4188842773438,
				-296.3807678222656
			],
			"min":[
				-391.2568359375,
				-238.70458984375,
				-298.4186096191406
			],
			"type":"VEC3"
		},
		{
			"bufferView":1,
			"componentType":5126,
			"count":384,
			"type":"VEC3"
		},
		{
			"bufferView":2,
			"componentType":5126,
			"count":384,
			"type":"VEC2"
		},
		{
			"bufferView":3,
			"componentType":5123,
			"count":738,
			"type":"SCALAR"
		},
		{
			"bufferView":4,
			"componentType":5126,
			"count":170,
			"max":[
				78.51687622070312,
				-452.3865051269531,
				-146.0192413330078
			],
			"min":[
				73.00503540039062,
				-553.927978515625,
				-247.560791015625
			],
			"type":"VEC3"
		},
		{
			"bufferView":5,
			"componentType":5126,
			"count":170,
			"type":"VEC3"
		},
		{
			"bufferView":6,
			"componentType":5126,
			"count":170,
			"type":"VEC2"
		},
		{
			"bufferView":7,
			"componentType":5123,
			"count":288,
			"type":"SCALAR"
		},
		{
			"bufferView":8,
			"componentType":5126,
			"count":2405,
			"max":[
				230.85061645507812,
				359.49639892578125,
				-0.231842041015625
			],
			"min":[
				-79.16912841796875,
				-581.4188842773438,
				-350.39630126953125
			],
			"type":"VEC3"
		},
		{
			"bufferView":9,
			"componentType":5126,
			"count":2405,
			"type":"VEC3"
		},
		{
			"bufferView":10,
			"componentType":5126,
			"count":2405,
			"type":"VEC2"
		},
		{
			"bufferView":11,
			"componentType":5126,
			"count":2405,
			"type":"VEC2"
		},
		{
			"bufferView":12,
			"componentType":5123,
			"count":5667,
			"type":"SCALAR"
		},
		{
			"bufferView":13,
			"componentType":5126,
			"count":498,
			"max":[
				194.36117553710938,
				420.13818359375,
				-57.638336181640625
			],
			"min":[
				-46.1615104675293,
				-415.377197265625,
				-243.633056640625
			],
			"type":"VEC3"
		},
		{
			"bufferView":14,
			"componentType":5126,
			"count":498,
			"type":"VEC3"
		},
		{
			"bufferView":15,
			"componentType":5126,
			"count":498,
			"type":"VEC2"
		},
		{
			"bufferView":16,
			"componentType":5126,
			"count":498,
			"type":"VEC2"
		},
		{
			"bufferView":17,
			"componentType":5123,
			"count":1728,
			"type":"SCALAR"
		}
	],
	"bufferViews":[
		{
			"buffer":0,
			"byteLength":4608,
			"byteOffset":0,
			"target":34962
		},
		{
			"buffer":0,
			"byteLength":4608,
			"byteOffset":4608,
			"target":34962
		},
		{
			"buffer":0,
			"byteLength":3072,
			"byteOffset":9216,
			"target":34962
		},
		{
			"buffer":0,
			"byteLength":1476,
			"byteOffset":12288,
			"target":34963
		},
		{
			"buffer":0,
			"byteLength":2040,
			"byteOffset":13764,
			"target":34962
		},
		{
			"buffer":0,
			"byteLength":2040,
			"byteOffset":15804,
			"target":34962
		},
		{
			"buffer":0,
			"byteLength":1360,
			"byteOffset":17844,
			"target":34962
		},
		{
			"buffer":0,
			"byteLength":576,
			"byteOffset":19204,
			"target":34963
		},
		{
			"buffer":0,
			"byteLength":28860,
			"byteOffset":19780,
			"target":34962
		},
		{
			"buffer":0,
			"byteLength":28860,
			"byteOffset":48640,
			"target":34962
		},
		{
			"buffer":0,
			"byteLength":19240,
			"byteOffset":77500,
			"target":34962
		},
		{
			"buffer":0,
			"byteLength":19240,
			"byteOffset":96740,
			"target":34962
		},
		{
			"buffer":0,
			"byteLength":11334,
			"byteOffset":115980,
			"target":34963
		},
		{
			"buffer":0,
			"byteLength":5976,
			"byteOffset":127316,
			"target":34962
		},
		{
			"buffer":0,
			"byteLength":5976,
			"byteOffset":133292,
			"target":34962
		},
		{
			"buffer":0,
			"byteLength":3984,
			"byteOffset":139268,
			"target":34962
		},
		{
			"buffer":0,
			"byteLength":3984,
			"byteOffset":143252,
			"target":34962
		},
		{
			"buffer":0,
			"byteLength":3456,
			"byteOffset":147236,
			"target":34963
		}
	],
	"samplers":[
		{
			"magFilter":9729,
			"minFilter":9987
		}
	],
	"buffers":[
		{
			"byteLength":150692,
			"uri":"scene.bin"
		}
	]
}
